<svg xmlns="http://www.w3.org/2000/svg" viewBox="0 0 32 32"><path fill="#FFA116" d="M12.248 12.875l-4.748 4.748 4.748 4.748c.391.391.391 1.024 0 1.414s-1.024.391-1.414 0l-5.455-5.455c-.391-.391-.391-1.024 0-1.414l5.455-5.455c.391-.391 1.024-.391 1.414 0s.391 1.023 0 1.414zm7.504 0c-.391-.391-.391-1.023 0-1.414s1.024-.391 1.414 0l5.455 5.455c.391.391.391 1.024 0 1.414l-5.455 5.455c-.391.391-1.024.391-1.414 0s-.391-1.024 0-1.414l4.748-4.748-4.748-4.748zm-3.441-6.766c.535.147.854.695.707 1.229l-4 14.667c-.147.535-.695.854-1.229.707s-.854-.695-.707-1.229l4-14.667c.147-.535.695-.854 1.229-.707z"/></svg>