<svg xmlns="http://www.w3.org/2000/svg" viewBox="0 0 32 32"><path fill="#42a5f5" d="M26.12 22.96c-.58-.28-3.42-1.68-3.94-1.88-.52-.2-.92-.28-1.3.28-.38.58-1.5 1.88-1.84 2.26-.34.38-.68.44-1.26.14-.58-.28-2.44-.9-4.64-2.86-1.72-1.54-2.88-3.42-3.2-4-.32-.58-.04-.9.26-1.18.26-.26.58-.68.86-1.02.28-.34.38-.58.58-.96.2-.38.1-.72-.04-1.02-.14-.28-1.3-3.14-1.8-4.3-.48-1.12-.96-.98-1.3-1-.34-.02-.72-.02-1.1-.02-.38 0-1.02.14-1.54.72-.52.58-2.02 1.98-2.02 4.82s2.08 5.6 2.36 5.98c.28.38 4.06 6.24 9.86 8.74 1.38.6 2.46.96 3.3 1.22 1.38.44 2.64.38 3.64.24 1.12-.16 3.42-1.4 3.9-2.76.48-1.36.48-2.5.34-2.76-.14-.24-.54-.38-1.12-.68z"/></svg>